<svg xmlns="http://www.w3.org/2000/svg" width="20" height="20" viewBox="0 0 20 20">
    <g fill="none" fill-rule="evenodd" stroke-linecap="round" stroke-linejoin="round">
        <g stroke="#000" stroke-width="1.2">
            <g>
                <path d="M9.6.6c-4.97 0-9 4.03-9 9s4.03 9 9 9 9-4.03 9-9c0-2.387-.948-4.676-2.636-6.364C14.276 1.548 11.987.6 9.6.6z" transform="translate(-1362 -966) translate(1362 966)"/>
                <path d="M7.116 13.403L5.588 8.683 9.6 5.766 13.612 8.683 12.084 13.403zM13.041 1.281L9.6 3.6 6.159 1.281M11.679 18.358L13.39 14.866 17.298 14.266M18.571 10.327L15.83 7.597 16.418 3.726M9.6 3.6L9.6 5.766M13.612 8.683L15.83 7.597M.629 10.327L3.37 7.597 2.782 3.726M5.588 8.683L3.37 7.597M12.084 13.403L13.39 14.866M7.521 18.358L5.81 14.866 1.902 14.266M7.116 13.403L5.81 14.866" transform="translate(-1362 -966) translate(1362 966)"/>
            </g>
        </g>
    </g>
</svg>
