<svg xmlns="http://www.w3.org/2000/svg" width="24" height="22" viewBox="0 0 24 22">
    <g fill="none" fill-rule="evenodd">
        <g fill="#CBD4D9" fill-rule="nonzero">
            <g>
                <path d="M5.25 15.81c.828 0 1.5.671 1.5 1.5v2.958c0 .829-.672 1.5-1.5 1.5h-3.5c-.828 0-1.5-.671-1.5-1.5V17.31c0-.829.672-1.5 1.5-1.5h3.5zm8.5 0c.828 0 1.5.671 1.5 1.5v2.958c0 .829-.672 1.5-1.5 1.5h-3.5c-.828 0-1.5-.671-1.5-1.5V17.31c0-.829.672-1.5 1.5-1.5h3.5zm8.5 0c.828 0 1.5.671 1.5 1.5v2.958c0 .829-.672 1.5-1.5 1.5h-3.5c-.828 0-1.5-.671-1.5-1.5V17.31c0-.829.672-1.5 1.5-1.5h3.5zm-17-7.792c.828 0 1.5.672 1.5 1.5v2.958c0 .829-.672 1.5-1.5 1.5h-3.5c-.828 0-1.5-.671-1.5-1.5V9.518c0-.828.672-1.5 1.5-1.5h3.5zm8.5 0c.828 0 1.5.672 1.5 1.5v2.958c0 .829-.672 1.5-1.5 1.5h-3.5c-.828 0-1.5-.671-1.5-1.5V9.518c0-.828.672-1.5 1.5-1.5h3.5zm8.5 0c.828 0 1.5.672 1.5 1.5v2.958c0 .829-.672 1.5-1.5 1.5h-3.5c-.828 0-1.5-.671-1.5-1.5V9.518c0-.828.672-1.5 1.5-1.5h3.5zM5.25.226c.828 0 1.5.672 1.5 1.5v2.959c0 .828-.672 1.5-1.5 1.5h-3.5c-.828 0-1.5-.672-1.5-1.5V1.726c0-.828.672-1.5 1.5-1.5h3.5zm8.5 0c.828 0 1.5.672 1.5 1.5v2.959c0 .828-.672 1.5-1.5 1.5h-3.5c-.828 0-1.5-.672-1.5-1.5V1.726c0-.828.672-1.5 1.5-1.5h3.5zm8.5 0c.828 0 1.5.672 1.5 1.5v2.959c0 .828-.672 1.5-1.5 1.5h-3.5c-.828 0-1.5-.672-1.5-1.5V1.726c0-.828.672-1.5 1.5-1.5h3.5z" transform="translate(-297 -3436) translate(297 3436)"/>
            </g>
        </g>
    </g>
</svg>
